<?xml version="1.0" encoding="UTF-8"?>
<svg width="700pt" height="700pt" version="1.1" viewBox="0 0 700 700" xmlns="http://www.w3.org/2000/svg">
 <path d="m425.3 76.336-41.266-41.281c-18.797-18.797-49.281-18.797-68.074 0-13.984 14-30.746 30.766-41.266 41.281-4.0938 4.0938-9.6602 6.4062-15.469 6.4062h-58.363c-26.582 0-48.125 21.543-48.125 48.125v58.363c0 5.8086-2.3086 11.375-6.4062 15.469-10.516 10.516-27.281 27.281-41.281 41.266-18.797 18.797-18.797 49.281 0 68.074 14 13.984 30.766 30.746 41.281 41.266 4.0938 4.0938 6.4062 9.6602 6.4062 15.469v58.363c0 26.582 21.543 48.125 48.125 48.125h58.363c5.8086 0 11.375 2.3086 15.469 6.4062 10.516 10.516 27.281 27.281 41.266 41.281 18.797 18.797 49.281 18.797 68.074 0 13.984-14 30.746-30.766 41.266-41.281 4.0938-4.0938 9.6602-6.4062 15.469-6.4062h58.363c26.582 0 48.125-21.543 48.125-48.125v-58.363c0-5.8086 2.3086-11.375 6.4062-15.469 10.516-10.516 27.281-27.281 41.281-41.266 18.797-18.797 18.797-49.281 0-68.074-14-13.984-30.766-30.746-41.281-41.266-4.0938-4.0938-6.4062-9.6602-6.4062-15.469v-58.363c0-26.582-21.543-48.125-48.125-48.125h-58.363c-5.8086 0-11.375-2.3086-15.469-6.4062zm-18.566 18.551c9.0312 9.0312 21.262 14.105 34.039 14.105h58.363c12.074 0 21.875 9.8008 21.875 21.875v58.363c0 12.773 5.0742 25.008 14.105 34.039 10.516 10.516 27.266 27.266 41.266 41.266 8.5391 8.5391 8.5391 22.398 0 30.941-14 14-30.746 30.746-41.266 41.266-9.0312 9.0312-14.105 21.262-14.105 34.039v58.363c0 12.074-9.8008 21.875-21.875 21.875h-58.363c-12.773 0-25.008 5.0742-34.039 14.105l-41.266 41.266c-8.5391 8.5391-22.398 8.5391-30.941 0l-41.266-41.266c-9.0312-9.0312-21.262-14.105-34.039-14.105h-58.363c-12.074 0-21.875-9.8008-21.875-21.875v-58.363c0-12.773-5.0742-25.008-14.105-34.039-10.516-10.516-27.266-27.266-41.266-41.266-8.5391-8.5391-8.5391-22.398 0-30.941l41.266-41.266c9.0312-9.0312 14.105-21.262 14.105-34.039v-58.363c0-12.074 9.8008-21.875 21.875-21.875h58.363c12.773 0 25.008-5.0742 34.039-14.105l41.266-41.266c8.5391-8.5391 22.398-8.5391 30.941 0zm-74.656 170.41c-0.35156 6.5625-0.50781 11.324-0.50781 14.281 0 19.898 3.1133 43.172 9.3438 69.844-4.3398 1.7344-10.867 3.4141-19.602 5.0586-8.75 1.6445-15.977 2.293-21.684 1.9414-1.7344-10.379-2.9414-18.953-3.6406-25.707-0.69922-6.7383-1.0312-13.754-1.0312-21.016 0-6.0742 0.085938-10.902 0.24609-14.543-7.9609 0.17578-15.574-1.0859-22.836-3.7617-7.2812-2.6953-13.246-6.8945-17.922-12.602-4.6719-5.7031-7.0156-12.809-7.0156-21.297 0-7.2617 1.6992-15.137 5.0742-23.625 3.3789-8.4688 8.3125-15.664 14.789-21.543 6.4922-5.8789 14.07-8.8359 22.734-8.8359 14.699-0.33203 25.566 5.2852 32.586 16.887 7 11.602 10.168 26.566 9.4688 44.922zm111.65 0c-0.35156 6.5625-0.52344 11.324-0.52344 14.281 0 19.898 3.1133 43.172 9.3633 69.844-4.3398 1.7344-10.867 3.4141-19.617 5.0586-8.7344 1.6445-15.961 2.293-21.684 1.9414-1.7148-10.379-2.9414-18.953-3.6211-25.707-0.69922-6.7383-1.0508-13.754-1.0508-21.016 0-6.0742 0.085938-10.902 0.26172-14.543-7.9609 0.17578-15.574-1.0859-22.836-3.7617-7.2812-2.6953-13.246-6.8945-17.922-12.602-4.6719-5.7031-7.0156-12.809-7.0156-21.297 0-7.2617 1.6992-15.137 5.0742-23.625 3.3594-8.4688 8.2969-15.664 14.789-21.543 6.4922-5.8789 14.07-8.8359 22.734-8.8359 14.699-0.33203 25.566 5.2852 32.586 16.887 7 11.602 10.168 26.566 9.4688 44.922zm-152.67-11.164c6.5781 0 12.461-0.52344 17.656-1.5586-2.9414-3.2891-6.5781-5.8438-10.902-7.6641-4.3242-1.8203-8.5742-2.7305-12.723-2.7305-3.2891 0-6.0195 0.78906-8.1914 2.3438-2.1523 1.5586-3.1484 3.6211-2.9766 6.2305 1.7344 2.2383 7.4375 3.3789 17.133 3.3789zm111.65 0c6.5781 0 12.461-0.52344 17.656-1.5586-2.9414-3.2891-6.5781-5.8438-10.902-7.6641-4.3398-1.8203-8.5742-2.7305-12.723-2.7305-3.2891 0-6.0195 0.78906-8.1914 2.3438-2.1523 1.5586-3.1484 3.6211-2.9766 6.2305 1.7344 2.2383 7.4375 3.3789 17.133 3.3789z"/>
</svg>
