<svg xmlns="http://www.w3.org/2000/svg" xmlns:xlink="http://www.w3.org/1999/xlink" width="1080" zoomAndPan="magnify" viewBox="0 0 810 809.999993" height="1080" preserveAspectRatio="xMidYMid meet" version="1.0"><defs><clipPath id="id1"><path d="M 16.300781 22.570312 L 791.050781 22.570312 L 791.050781 791.320312 L 16.300781 791.320312 Z M 16.300781 22.570312 " clip-rule="nonzero"/></clipPath><clipPath id="id2"><path d="M 49.277344 49.277344 L 761.027344 49.277344 L 761.027344 761.027344 L 49.277344 761.027344 Z M 49.277344 49.277344 " clip-rule="nonzero"/></clipPath></defs><g clip-path="url(#id1)"><path fill="#5271ff" d="M 403.675781 22.570312 C 189.734375 22.570312 16.300781 194.660156 16.300781 406.945312 C 16.300781 619.230469 189.734375 791.320312 403.675781 791.320312 C 617.617188 791.320312 791.050781 619.230469 791.050781 406.945312 C 791.050781 194.660156 617.617188 22.570312 403.675781 22.570312 " fill-opacity="1" fill-rule="nonzero"/></g><g clip-path="url(#id2)"><path fill="#ffffff" d="M 761.027344 401.832031 L 761.027344 405.152344 C 761.027344 410.976562 760.882812 416.796875 760.597656 422.613281 C 760.3125 428.429688 759.882812 434.238281 759.3125 440.035156 C 758.742188 445.828125 758.03125 451.609375 757.175781 457.371094 C 756.320312 463.128906 755.324219 468.867188 754.1875 474.578125 C 753.054688 480.292969 751.777344 485.972656 750.363281 491.621094 C 748.945312 497.273438 747.394531 502.882812 745.703125 508.457031 C 744.011719 514.03125 742.1875 519.558594 740.222656 525.042969 C 738.261719 530.527344 736.167969 535.957031 733.9375 541.339844 C 731.707031 546.71875 729.347656 552.042969 726.859375 557.308594 C 724.367188 562.574219 721.75 567.773438 719.003906 572.910156 C 716.261719 578.046875 713.390625 583.113281 710.394531 588.109375 C 707.402344 593.105469 704.285156 598.023438 701.050781 602.867188 C 697.816406 607.707031 694.464844 612.46875 690.992188 617.148438 C 687.523438 621.824219 683.941406 626.414062 680.246094 630.917969 C 676.550781 635.417969 672.75 639.828125 668.839844 644.144531 C 664.925781 648.457031 660.910156 652.675781 656.792969 656.792969 C 652.675781 660.910156 648.457031 664.925781 644.144531 668.839844 C 639.828125 672.75 635.417969 676.550781 630.917969 680.246094 C 626.414062 683.941406 621.824219 687.523438 617.148438 690.992188 C 612.46875 694.464844 607.707031 697.816406 602.867188 701.050781 C 598.023438 704.285156 593.105469 707.402344 588.109375 710.394531 C 583.113281 713.390625 578.046875 716.261719 572.910156 719.003906 C 567.773438 721.75 562.574219 724.367188 557.308594 726.859375 C 552.042969 729.347656 546.71875 731.707031 541.339844 733.9375 C 535.957031 736.167969 530.527344 738.261719 525.042969 740.222656 C 519.558594 742.1875 514.03125 744.011719 508.457031 745.703125 C 502.882812 747.394531 497.273438 748.945312 491.621094 750.363281 C 485.972656 751.777344 480.292969 753.054688 474.578125 754.1875 C 468.867188 755.324219 463.128906 756.320312 457.371094 757.175781 C 451.609375 758.03125 445.828125 758.742188 440.035156 759.3125 C 434.238281 759.882812 428.429688 760.3125 422.613281 760.597656 C 416.796875 760.882812 410.976562 761.027344 405.152344 761.027344 C 399.328125 761.027344 393.507812 760.882812 387.691406 760.597656 C 381.871094 760.3125 376.066406 759.882812 370.269531 759.3125 C 364.472656 758.742188 358.695312 758.03125 352.933594 757.175781 C 347.171875 756.320312 341.4375 755.324219 335.722656 754.1875 C 330.011719 753.054688 324.332031 751.777344 318.679688 750.363281 C 313.03125 748.945312 307.421875 747.394531 301.847656 745.703125 C 296.273438 744.011719 290.746094 742.1875 285.261719 740.222656 C 279.777344 738.261719 274.34375 736.167969 268.964844 733.9375 C 263.582031 731.707031 258.261719 729.347656 252.996094 726.859375 C 247.730469 724.367188 242.53125 721.75 237.394531 719.003906 C 232.257812 716.261719 227.191406 713.390625 222.195312 710.394531 C 217.199219 707.402344 212.28125 704.285156 207.4375 701.050781 C 202.597656 697.816406 197.835938 694.464844 193.15625 690.992188 C 188.480469 687.523438 183.890625 683.941406 179.386719 680.246094 C 174.886719 676.550781 170.476562 672.75 166.160156 668.839844 C 161.84375 664.925781 157.628906 660.910156 153.511719 656.792969 C 149.390625 652.675781 145.378906 648.457031 141.464844 644.144531 C 137.554688 639.828125 133.75 635.417969 130.058594 630.917969 C 126.363281 626.414062 122.78125 621.824219 119.3125 617.148438 C 115.839844 612.46875 112.488281 607.707031 109.253906 602.867188 C 106.015625 598.023438 102.902344 593.105469 99.90625 588.109375 C 96.914062 583.113281 94.042969 578.046875 91.296875 572.910156 C 88.554688 567.773438 85.933594 562.574219 83.445312 557.308594 C 80.953125 552.042969 78.59375 546.71875 76.367188 541.339844 C 74.136719 535.957031 72.042969 530.527344 70.082031 525.042969 C 68.117188 519.558594 66.292969 514.03125 64.601562 508.457031 C 62.910156 502.882812 61.355469 497.273438 59.941406 491.621094 C 58.527344 485.972656 57.25 480.292969 56.113281 474.578125 C 54.980469 468.867188 53.984375 463.128906 53.128906 457.371094 C 52.273438 451.609375 51.5625 445.828125 50.992188 440.035156 C 50.417969 434.238281 49.992188 428.429688 49.707031 422.613281 C 49.421875 416.796875 49.277344 410.976562 49.277344 405.152344 C 49.277344 399.328125 49.421875 393.507812 49.707031 387.691406 C 49.992188 381.871094 50.417969 376.066406 50.992188 370.269531 C 51.5625 364.472656 52.273438 358.695312 53.128906 352.933594 C 53.984375 347.171875 54.980469 341.4375 56.113281 335.722656 C 57.25 330.011719 58.527344 324.332031 59.941406 318.679688 C 61.355469 313.03125 62.910156 307.421875 64.601562 301.847656 C 66.292969 296.273438 68.117188 290.746094 70.082031 285.261719 C 72.042969 279.777344 74.136719 274.34375 76.367188 268.964844 C 78.59375 263.582031 80.953125 258.261719 83.445312 252.996094 C 85.933594 247.730469 88.554688 242.53125 91.296875 237.394531 C 94.042969 232.257812 96.914062 227.191406 99.90625 222.195312 C 102.902344 217.199219 106.015625 212.28125 109.253906 207.4375 C 112.488281 202.597656 115.839844 197.835938 119.3125 193.15625 C 122.78125 188.480469 126.363281 183.890625 130.058594 179.386719 C 133.75 174.886719 137.554688 170.476562 141.464844 166.160156 C 145.378906 161.84375 149.390625 157.628906 153.511719 153.511719 C 157.628906 149.390625 161.84375 145.378906 166.160156 141.464844 C 170.476562 137.554688 174.886719 133.75 179.386719 130.058594 C 183.890625 126.363281 188.480469 122.78125 193.15625 119.3125 C 197.835938 115.839844 202.597656 112.488281 207.4375 109.253906 C 212.28125 106.015625 217.199219 102.902344 222.195312 99.90625 C 227.191406 96.914062 232.257812 94.042969 237.394531 91.296875 C 242.53125 88.554688 247.730469 85.933594 252.996094 83.445312 C 258.261719 80.953125 263.582031 78.59375 268.964844 76.367188 C 274.34375 74.136719 279.777344 72.042969 285.261719 70.082031 C 290.746094 68.117188 296.273438 66.292969 301.847656 64.601562 C 307.421875 62.910156 313.03125 61.355469 318.679688 59.941406 C 324.332031 58.527344 330.011719 57.25 335.722656 56.113281 C 341.4375 54.980469 347.171875 53.984375 352.933594 53.128906 C 358.695312 52.273438 364.472656 51.5625 370.269531 50.992188 C 376.066406 50.417969 381.871094 49.992188 387.691406 49.707031 C 393.507812 49.421875 399.328125 49.277344 405.152344 49.277344 L 408.621094 49.277344 C 405.65625 50.625 402.714844 52.03125 399.796875 53.488281 C 396.882812 54.945312 393.996094 56.453125 391.136719 58.019531 C 388.277344 59.582031 385.445312 61.195312 382.644531 62.863281 C 379.84375 64.53125 377.074219 66.25 374.335938 68.015625 C 371.601562 69.785156 368.894531 71.605469 366.226562 73.472656 C 363.554688 75.339844 360.917969 77.257812 358.320312 79.222656 C 355.71875 81.1875 353.15625 83.199219 350.628906 85.257812 C 348.101562 87.316406 345.613281 89.421875 343.164062 91.574219 C 340.714844 93.722656 338.304688 95.917969 335.9375 98.15625 C 333.570312 100.394531 331.242188 102.675781 328.957031 105 C 326.671875 107.324219 324.429688 109.691406 322.234375 112.097656 C 320.035156 114.503906 317.882812 116.949219 315.773438 119.433594 C 313.664062 121.921875 311.605469 124.445312 309.589844 127.003906 C 307.574219 129.566406 305.605469 132.164062 303.683594 134.796875 C 301.765625 137.429688 299.894531 140.097656 298.070312 142.800781 C 296.25 145.503906 294.476562 148.238281 292.753906 151.003906 C 291.03125 153.773438 289.363281 156.570312 287.742188 159.398438 C 286.125 162.226562 284.558594 165.085938 283.042969 167.972656 C 281.527344 170.859375 280.066406 173.769531 278.660156 176.710938 C 277.253906 179.648438 275.898438 182.613281 274.601562 185.605469 C 273.304688 188.59375 272.058594 191.605469 270.871094 194.640625 C 269.683594 197.675781 268.554688 200.730469 267.476562 203.808594 C 266.402344 206.886719 265.382812 209.980469 264.421875 213.09375 C 263.457031 216.207031 262.554688 219.339844 261.707031 222.488281 C 260.859375 225.632812 260.070312 228.796875 259.339844 231.972656 C 258.609375 235.148438 257.9375 238.335938 257.324219 241.539062 C 256.710938 244.738281 256.152344 247.949219 255.660156 251.171875 C 255.164062 254.390625 254.726562 257.621094 254.347656 260.859375 C 253.972656 264.097656 253.652344 267.339844 253.394531 270.589844 C 253.136719 273.835938 252.9375 277.089844 252.796875 280.347656 C 252.660156 283.601562 252.582031 286.859375 252.5625 290.121094 C 252.542969 293.378906 252.582031 296.636719 252.683594 299.894531 C 252.78125 303.152344 252.941406 306.40625 253.164062 309.660156 C 253.382812 312.910156 253.664062 316.15625 254 319.398438 C 254.339844 322.640625 254.738281 325.875 255.195312 329.101562 C 255.652344 332.328125 256.171875 335.546875 256.746094 338.753906 C 257.324219 341.964844 257.957031 345.160156 258.652344 348.34375 C 259.34375 351.527344 260.09375 354.699219 260.90625 357.855469 C 261.714844 361.015625 262.582031 364.15625 263.507812 367.28125 C 264.433594 370.40625 265.414062 373.511719 266.453125 376.601562 C 267.492188 379.691406 268.585938 382.761719 269.738281 385.808594 C 270.890625 388.859375 272.097656 391.886719 273.363281 394.890625 C 274.625 397.894531 275.941406 400.875 277.3125 403.832031 C 278.6875 406.785156 280.113281 409.71875 281.59375 412.621094 C 283.074219 415.523438 284.605469 418.402344 286.191406 421.25 C 287.777344 424.097656 289.414062 426.914062 291.101562 429.699219 C 292.792969 432.488281 294.53125 435.246094 296.320312 437.96875 C 298.109375 440.691406 299.949219 443.382812 301.839844 446.039062 C 303.726562 448.695312 305.664062 451.3125 307.648438 453.898438 C 309.636719 456.484375 311.667969 459.03125 313.746094 461.542969 C 315.824219 464.050781 317.949219 466.523438 320.117188 468.957031 C 322.289062 471.390625 324.5 473.78125 326.757812 476.132812 C 329.015625 478.484375 331.3125 480.792969 333.65625 483.058594 C 336 485.324219 338.382812 487.546875 340.804688 489.726562 C 343.226562 491.90625 345.691406 494.039062 348.191406 496.128906 C 350.695312 498.21875 353.234375 500.261719 355.8125 502.257812 C 358.386719 504.25 361 506.199219 363.648438 508.097656 C 366.296875 510 368.980469 511.847656 371.695312 513.652344 C 374.414062 515.453125 377.160156 517.203125 379.941406 518.902344 C 382.722656 520.601562 385.535156 522.25 388.375 523.847656 C 391.214844 525.445312 394.085938 526.988281 396.984375 528.480469 C 399.878906 529.972656 402.804688 531.410156 405.753906 532.796875 C 408.707031 534.179688 411.679688 535.511719 414.679688 536.785156 C 417.679688 538.058594 420.703125 539.28125 423.746094 540.445312 L 424.132812 540.59375 C 428.847656 542.402344 433.621094 544.03125 438.425781 545.542969 L 439.109375 545.78125 C 453.53125 550.28125 468.230469 553.523438 483.207031 555.507812 C 490.445312 556.488281 497.738281 557.171875 504.886719 557.527344 L 512.121094 557.792969 L 519.890625 557.792969 C 521.820312 557.792969 523.71875 557.792969 525.496094 557.792969 L 526.121094 557.792969 L 531.664062 557.554688 C 535.195312 557.378906 538.753906 557.140625 542.3125 556.8125 C 551.402344 556.019531 560.429688 554.753906 569.386719 553.019531 C 589.707031 549.09375 609.292969 542.855469 628.136719 534.304688 L 628.40625 534.304688 C 630.984375 533.117188 633.566406 531.902344 636.144531 530.628906 C 645.117188 526.199219 653.8125 521.28125 662.234375 515.878906 C 670.652344 510.472656 678.746094 504.613281 686.503906 498.296875 C 694.265625 491.984375 701.652344 485.253906 708.65625 478.109375 C 715.660156 470.964844 722.246094 463.453125 728.40625 455.566406 C 730.125 453.375 731.816406 451.148438 733.445312 448.894531 C 744.269531 434.160156 753.464844 418.472656 761.027344 401.832031 Z M 761.027344 401.832031 " fill-opacity="1" fill-rule="nonzero"/></g><path fill="#ffffff" d="M 712.09375 373.863281 L 712.09375 437.773438 C 711.679688 438.335938 711.265625 438.929688 710.820312 439.492188 L 708.59375 442.460938 L 706.015625 445.632812 C 705.242188 446.582031 704.503906 447.5 703.703125 448.421875 C 702.902344 449.339844 701.953125 450.496094 701.03125 451.386719 C 700.113281 452.277344 699.460938 453.195312 698.660156 454.085938 L 695.871094 457.050781 L 693.410156 459.660156 L 690.445312 462.625 L 687.925781 465.148438 L 684.957031 468.113281 L 682.347656 470.542969 L 679.382812 473.273438 L 676.714844 475.644531 L 673.542969 478.285156 L 670.8125 480.539062 L 667.550781 483.117188 C 666.632812 483.832031 665.710938 484.570312 664.761719 485.253906 C 663.8125 485.9375 662.539062 486.914062 661.410156 487.746094 L 658.59375 489.792969 L 655.125 492.191406 L 652.160156 494.121094 C 650.941406 494.921875 649.757812 495.691406 648.539062 496.433594 L 645.574219 498.273438 L 641.808594 500.527344 L 638.992188 502.1875 L 635.253906 504.261719 L 635.253906 353.371094 L 670.398438 362.773438 Z M 712.09375 373.863281 " fill-opacity="1" fill-rule="nonzero"/><path fill="#ffffff" d="M 660.402344 335.460938 L 626.714844 326.5625 L 625.765625 326.5625 C 625.0625 326.410156 624.351562 326.332031 623.628906 326.324219 L 428.371094 326.324219 C 427.664062 326.332031 426.960938 326.414062 426.265625 326.5625 L 425.316406 326.5625 L 391.628906 335.460938 C 391.933594 333.476562 392.285156 331.496094 392.679688 329.527344 C 393.070312 327.558594 393.507812 325.597656 393.988281 323.648438 C 394.46875 321.699219 394.992188 319.757812 395.558594 317.832031 C 396.125 315.90625 396.734375 313.992188 397.386719 312.089844 C 398.035156 310.191406 398.730469 308.304688 399.464844 306.4375 C 400.199219 304.566406 400.976562 302.714844 401.792969 300.878906 C 402.609375 299.042969 403.464844 297.226562 404.363281 295.429688 C 405.261719 293.632812 406.195312 291.859375 407.171875 290.101562 C 408.148438 288.347656 409.164062 286.613281 410.214844 284.902344 C 411.269531 283.191406 412.359375 281.507812 413.484375 279.84375 C 414.613281 278.179688 415.777344 276.546875 416.976562 274.933594 C 418.175781 273.324219 419.414062 271.742188 420.683594 270.183594 C 421.953125 268.628906 423.257812 267.101562 424.59375 265.601562 C 425.933594 264.105469 427.304688 262.636719 428.707031 261.199219 C 430.109375 259.761719 431.542969 258.355469 433.007812 256.980469 C 434.472656 255.609375 435.96875 254.269531 437.492188 252.960938 C 439.019531 251.652344 440.570312 250.378906 442.152344 249.140625 C 443.734375 247.902344 445.339844 246.699219 446.976562 245.53125 C 448.609375 244.363281 450.269531 243.230469 451.953125 242.136719 C 453.636719 241.042969 455.34375 239.988281 457.078125 238.96875 C 458.808594 237.949219 460.5625 236.972656 462.335938 236.03125 C 464.109375 235.089844 465.90625 234.1875 467.71875 233.328125 C 469.535156 232.46875 471.367188 231.644531 473.21875 230.867188 C 475.070312 230.085938 476.9375 229.347656 478.820312 228.652344 C 480.703125 227.953125 482.601562 227.296875 484.515625 226.683594 C 486.429688 226.074219 488.351562 225.503906 490.292969 224.972656 C 492.230469 224.445312 494.179688 223.960938 496.136719 223.519531 C 498.097656 223.078125 500.066406 222.679688 502.042969 222.328125 C 504.019531 221.972656 506.003906 221.664062 507.996094 221.398438 C 509.984375 221.128906 511.980469 220.910156 513.980469 220.730469 C 515.984375 220.554688 517.988281 220.417969 519.992188 220.332031 C 522 220.242188 524.007812 220.199219 526.015625 220.199219 C 528.023438 220.199219 530.03125 220.242188 532.039062 220.332031 C 534.046875 220.417969 536.050781 220.554688 538.050781 220.730469 C 540.050781 220.910156 542.046875 221.128906 544.039062 221.398438 C 546.027344 221.664062 548.011719 221.972656 549.988281 222.328125 C 551.964844 222.679688 553.933594 223.078125 555.894531 223.519531 C 557.855469 223.960938 559.804688 224.445312 561.742188 224.972656 C 563.679688 225.5 565.605469 226.074219 567.515625 226.683594 C 569.429688 227.296875 571.328125 227.953125 573.210938 228.652344 C 575.09375 229.347656 576.964844 230.085938 578.8125 230.867188 C 580.664062 231.644531 582.496094 232.46875 584.3125 233.328125 C 586.128906 234.1875 587.921875 235.089844 589.695312 236.03125 C 591.472656 236.972656 593.222656 237.949219 594.957031 238.96875 C 596.6875 239.988281 598.394531 241.042969 600.078125 242.136719 C 601.765625 243.230469 603.421875 244.363281 605.058594 245.53125 C 606.691406 246.699219 608.300781 247.902344 609.878906 249.140625 C 611.460938 250.378906 613.015625 251.652344 614.539062 252.960938 C 616.0625 254.269531 617.558594 255.609375 619.023438 256.980469 C 620.488281 258.355469 621.921875 259.761719 623.328125 261.199219 C 624.730469 262.636719 626.101562 264.105469 627.4375 265.601562 C 628.777344 267.101562 630.078125 268.628906 631.351562 270.183594 C 632.621094 271.742188 633.855469 273.324219 635.054688 274.933594 C 636.253906 276.546875 637.417969 278.179688 638.546875 279.84375 C 639.671875 281.507812 640.765625 283.191406 641.816406 284.902344 C 642.871094 286.613281 643.882812 288.347656 644.859375 290.101562 C 645.835938 291.859375 646.773438 293.632812 647.667969 295.429688 C 648.566406 297.226562 649.425781 299.042969 650.242188 300.878906 C 651.058594 302.714844 651.832031 304.566406 652.566406 306.4375 C 653.300781 308.304688 653.996094 310.191406 654.648438 312.089844 C 655.296875 313.992188 655.90625 315.90625 656.472656 317.832031 C 657.039062 319.757812 657.5625 321.699219 658.042969 323.648438 C 658.523438 325.597656 658.960938 327.558594 659.355469 329.527344 C 659.746094 331.496094 660.097656 333.476562 660.402344 335.460938 Z M 660.402344 335.460938 " fill-opacity="1" fill-rule="nonzero"/><path fill="#ffffff" d="M 611.765625 349.753906 L 611.765625 515.5625 L 610.105469 516.273438 L 607.941406 517.132812 C 605.125 518.261719 602.277344 519.359375 599.429688 520.367188 L 599.132812 520.367188 C 596.167969 521.40625 593.203125 522.355469 590.238281 523.332031 L 587.984375 524.042969 C 585.195312 524.875 582.378906 525.644531 579.558594 526.386719 L 579.027344 526.535156 L 579.027344 463.308594 C 579.027344 462.527344 578.949219 461.757812 578.796875 460.992188 C 578.648438 460.230469 578.421875 459.488281 578.125 458.769531 C 577.824219 458.046875 577.460938 457.363281 577.027344 456.71875 C 576.59375 456.070312 576.101562 455.46875 575.550781 454.917969 C 575 454.371094 574.402344 453.878906 573.753906 453.445312 C 573.105469 453.011719 572.421875 452.648438 571.703125 452.347656 C 570.984375 452.050781 570.242188 451.824219 569.476562 451.671875 C 568.714844 451.523438 567.941406 451.445312 567.164062 451.445312 L 560.878906 451.445312 C 554.648438 431.960938 535.078125 418.644531 532.464844 416.957031 C 531.5 416.324219 530.464844 415.84375 529.359375 415.515625 C 528.253906 415.183594 527.125 415.019531 525.972656 415.019531 C 524.816406 415.019531 523.6875 415.183594 522.582031 415.515625 C 521.476562 415.84375 520.441406 416.324219 519.476562 416.957031 C 516.898438 418.644531 497.324219 431.960938 491.097656 451.445312 L 484.777344 451.445312 C 484 451.445312 483.230469 451.523438 482.464844 451.671875 C 481.699219 451.824219 480.960938 452.050781 480.238281 452.347656 C 479.519531 452.648438 478.835938 453.011719 478.1875 453.445312 C 477.542969 453.878906 476.941406 454.371094 476.390625 454.921875 C 475.839844 455.472656 475.347656 456.070312 474.914062 456.71875 C 474.484375 457.363281 474.117188 458.046875 473.820312 458.769531 C 473.523438 459.488281 473.296875 460.230469 473.144531 460.992188 C 472.992188 461.757812 472.917969 462.527344 472.917969 463.308594 L 472.917969 529.855469 C 469.949219 529.292969 466.984375 528.640625 464.019531 527.929688 L 461.765625 527.394531 C 458.800781 526.714844 455.835938 525.972656 453.046875 525.140625 L 452.691406 525.140625 C 449.726562 524.3125 446.761719 523.363281 443.792969 522.414062 L 441.601562 521.703125 L 440.441406 521.285156 L 440.441406 349.871094 Z M 611.765625 349.753906 " fill-opacity="1" fill-rule="nonzero"/><path fill="#ffffff" d="M 416.511719 353.371094 L 416.511719 511.648438 L 412.773438 509.898438 L 410.105469 508.535156 L 406.367188 506.664062 L 403.609375 505.183594 L 400.050781 503.226562 L 397.261719 501.625 L 393.824219 499.605469 L 391.035156 497.886719 L 387.714844 495.78125 L 384.957031 493.972656 L 381.722656 491.808594 L 378.996094 489.910156 L 375.820312 487.625 L 373.152344 485.640625 L 370.1875 483.296875 L 367.578125 481.21875 L 364.613281 478.789062 L 362.03125 476.625 C 361.054688 475.792969 360.074219 474.964844 359.066406 474.101562 L 356.546875 471.878906 L 353.578125 469.269531 L 351.117188 466.957031 L 348.359375 464.257812 L 345.957031 461.882812 L 343.289062 459.125 L 340.945312 456.636719 C 340.621094 456.25 340.265625 455.863281 339.910156 455.507812 L 339.910156 373.863281 L 381.425781 362.804688 Z M 416.511719 353.371094 " fill-opacity="1" fill-rule="nonzero"/></svg>